<mxfile host="app.diagrams.net" modified="2023-05-01T20:43:13.906Z" agent="Mozilla/5.0 (Windows NT 10.0; Win64; x64; rv:109.0) Gecko/20100101 Firefox/112.0" etag="-X0ekPkpToH3EFeVhMW8" version="21.2.3" type="device">
  <diagram name="PÃ¡gina-1" id="2Jo_SwXvNAAl65paWCzh">
    <mxGraphModel dx="2261" dy="782" grid="1" gridSize="10" guides="1" tooltips="1" connect="1" arrows="1" fold="1" page="1" pageScale="1" pageWidth="827" pageHeight="1169" math="0" shadow="0">
      <root>
        <mxCell id="0" />
        <mxCell id="1" parent="0" />
        <mxCell id="-xodR0DUs0_LEPDp4mK6-6" value="" style="ellipse;whiteSpace=wrap;html=1;fillColor=#dae8fc;strokeColor=#6c8ebf;" vertex="1" parent="1">
          <mxGeometry x="-120" width="1031" height="630" as="geometry" />
        </mxCell>
        <mxCell id="-xodR0DUs0_LEPDp4mK6-7" value="" style="ellipse;whiteSpace=wrap;html=1;fillColor=#d5e8d4;strokeColor=#82b366;" vertex="1" parent="1">
          <mxGeometry y="70" width="785" height="470" as="geometry" />
        </mxCell>
        <mxCell id="-xodR0DUs0_LEPDp4mK6-8" value="" style="ellipse;whiteSpace=wrap;html=1;fillColor=#f8cecc;strokeColor=#b85450;" vertex="1" parent="1">
          <mxGeometry x="260.5" y="230" width="270" height="130" as="geometry" />
        </mxCell>
        <mxCell id="-xodR0DUs0_LEPDp4mK6-9" value="&lt;font style=&quot;font-size: 31px;&quot;&gt;Entity&lt;/font&gt;" style="text;html=1;strokeColor=none;fillColor=none;align=center;verticalAlign=middle;whiteSpace=wrap;rounded=0;" vertex="1" parent="1">
          <mxGeometry x="308.75" y="250" width="167.5" height="90" as="geometry" />
        </mxCell>
        <mxCell id="-xodR0DUs0_LEPDp4mK6-10" value="&lt;font style=&quot;font-size: 23px;&quot;&gt;Use Cases&lt;br&gt;&lt;/font&gt;" style="text;html=1;strokeColor=none;fillColor=none;align=center;verticalAlign=middle;whiteSpace=wrap;rounded=0;" vertex="1" parent="1">
          <mxGeometry x="267.5" y="410" width="250" height="30" as="geometry" />
        </mxCell>
        <mxCell id="-xodR0DUs0_LEPDp4mK6-11" value="&lt;font style=&quot;font-size: 24px;&quot;&gt;Lexical Analysis&lt;/font&gt;" style="text;html=1;strokeColor=none;fillColor=none;align=center;verticalAlign=middle;whiteSpace=wrap;rounded=0;" vertex="1" parent="1">
          <mxGeometry x="120" y="180" width="180" height="30" as="geometry" />
        </mxCell>
        <mxCell id="-xodR0DUs0_LEPDp4mK6-12" value="&lt;font style=&quot;font-size: 24px;&quot;&gt;Syntax Analysis&lt;/font&gt;" style="text;html=1;strokeColor=none;fillColor=none;align=center;verticalAlign=middle;whiteSpace=wrap;rounded=0;" vertex="1" parent="1">
          <mxGeometry x="530.5" y="200" width="180" height="30" as="geometry" />
        </mxCell>
        <mxCell id="-xodR0DUs0_LEPDp4mK6-13" value="&lt;font style=&quot;font-size: 29px;&quot;&gt;Node&lt;/font&gt;" style="text;html=1;strokeColor=none;fillColor=none;align=center;verticalAlign=middle;whiteSpace=wrap;rounded=0;" vertex="1" parent="1">
          <mxGeometry x="470" y="540" width="280" height="30" as="geometry" />
        </mxCell>
        <mxCell id="-xodR0DUs0_LEPDp4mK6-15" value="&lt;pre dir=&quot;ltr&quot; style=&quot;text-align: left; font-size: 13px;&quot; id=&quot;tw-target-text&quot; data-placeholder=&quot;Translation&quot; class=&quot;tw-data-text tw-text-large tw-ta&quot;&gt;&lt;font style=&quot;font-size: 26px;&quot;&gt;optimizations&lt;/font&gt;&lt;/pre&gt;" style="text;html=1;strokeColor=none;fillColor=none;align=center;verticalAlign=middle;whiteSpace=wrap;rounded=0;" vertex="1" parent="1">
          <mxGeometry x="60" y="340" width="180" height="30" as="geometry" />
        </mxCell>
        <mxCell id="-xodR0DUs0_LEPDp4mK6-16" value="&lt;font style=&quot;font-size: 23px;&quot;&gt;Interpreter Engine&lt;/font&gt;" style="text;html=1;strokeColor=none;fillColor=none;align=center;verticalAlign=middle;whiteSpace=wrap;rounded=0;" vertex="1" parent="1">
          <mxGeometry x="170" y="555" width="280" height="30" as="geometry" />
        </mxCell>
        <mxCell id="-xodR0DUs0_LEPDp4mK6-17" value="&lt;font style=&quot;font-size: 20px;&quot;&gt;Web Browser&lt;br&gt;&lt;/font&gt;" style="text;html=1;strokeColor=none;fillColor=none;align=center;verticalAlign=middle;whiteSpace=wrap;rounded=0;" vertex="1" parent="1">
          <mxGeometry x="-50" y="460" width="190" height="40" as="geometry" />
        </mxCell>
      </root>
    </mxGraphModel>
  </diagram>
</mxfile>
